<?xml version="1.0" encoding="iso-8859-1"?>
<!-- Generator: Adobe Illustrator 16.0.0, SVG Export Plug-In . SVG Version: 6.00 Build 0)  -->
<!DOCTYPE svg PUBLIC "-//W3C//DTD SVG 1.1//EN" "http://www.w3.org/Graphics/SVG/1.1/DTD/svg11.dtd">
<svg version="1.1" id="Capa_1" xmlns="http://www.w3.org/2000/svg" xmlns:xlink="http://www.w3.org/1999/xlink" x="0px" y="0px"
	 width="96.25px" height="96.25px" viewBox="0 0 96.25 96.25" style="enable-background:new 0 0 96.25 96.25;" xml:space="preserve"
	>
<g>
	<path d="M48.125,0C21.547,0,0,21.547,0,48.125S21.547,96.25,48.125,96.25S96.25,74.703,96.25,48.125S74.703,0,48.125,0z
		 M82.676,57.259H57.259v25.417c0,0.844-0.684,1.527-1.526,1.527H40.519c-0.844,0-1.527-0.684-1.527-1.527V57.259H13.574
		c-0.844,0-1.527-0.684-1.527-1.526V40.519c0-0.844,0.684-1.527,1.527-1.527h25.417V13.574c0-0.844,0.684-1.527,1.527-1.527H55.73
		c0.845,0,1.527,0.684,1.527,1.527v25.417h25.417c0.845,0,1.527,0.684,1.527,1.527V55.73C84.203,56.575,83.52,57.259,82.676,57.259z
		"/>
</g>
<g>
</g>
<g>
</g>
<g>
</g>
<g>
</g>
<g>
</g>
<g>
</g>
<g>
</g>
<g>
</g>
<g>
</g>
<g>
</g>
<g>
</g>
<g>
</g>
<g>
</g>
<g>
</g>
<g>
</g>
</svg>
