<?xml version="1.0" encoding="iso-8859-1"?>
<!-- Generator: Adobe Illustrator 16.0.0, SVG Export Plug-In . SVG Version: 6.00 Build 0)  -->
<!DOCTYPE svg PUBLIC "-//W3C//DTD SVG 1.1//EN" "http://www.w3.org/Graphics/SVG/1.1/DTD/svg11.dtd">
<svg version="1.1" id="Capa_1" xmlns="http://www.w3.org/2000/svg" xmlns:xlink="http://www.w3.org/1999/xlink" x="0px" y="0px"
	 width="96.624px" height="96.624px" viewBox="0 0 96.624 96.624" style="enable-background:new 0 0 96.624 96.624;"
	 xml:space="preserve">
<g>
	<path d="M85.455,16.312h-8.167V2.5c0-1.381-1.119-2.5-2.5-2.5H10.67c-1.381,0-2.5,1.119-2.5,2.5v91.624c0,1.381,1.119,2.5,2.5,2.5
		h64.116c1.381,0,2.5-1.119,2.5-2.5V32.437h8.167c1.656,0,3-1.343,3-3V19.312C88.455,17.655,87.11,16.312,85.455,16.312z
		 M83.938,27.949H71.75v12.188h-7.125V27.949H52.438v-7.125h12.188V8.636h7.125v12.188h12.188V27.949L83.938,27.949z"/>
</g>
<g>
</g>
<g>
</g>
<g>
</g>
<g>
</g>
<g>
</g>
<g>
</g>
<g>
</g>
<g>
</g>
<g>
</g>
<g>
</g>
<g>
</g>
<g>
</g>
<g>
</g>
<g>
</g>
<g>
</g>
</svg>
