<?xml version="1.0" encoding="iso-8859-1"?>
<!-- Generator: Adobe Illustrator 16.0.0, SVG Export Plug-In . SVG Version: 6.00 Build 0)  -->
<!DOCTYPE svg PUBLIC "-//W3C//DTD SVG 1.1//EN" "http://www.w3.org/Graphics/SVG/1.1/DTD/svg11.dtd">
<svg version="1.1" id="Capa_1" xmlns="http://www.w3.org/2000/svg" xmlns:xlink="http://www.w3.org/1999/xlink" x="0px" y="0px"
	 width="96.624px" height="96.624px" viewBox="0 0 96.624 96.624" style="enable-background:new 0 0 96.624 96.624;"
	 xml:space="preserve">
<g>
	<path d="M91.35,17.18L80.205,6.035c-0.337-0.325-0.93-0.713-1.839-0.713c-0.882,0-1.464,0.368-1.869,0.745l-2.88,2.882V2.5
		c0-1.381-1.119-2.5-2.5-2.5H7C5.619,0,4.5,1.119,4.5,2.5v91.624c0,1.381,1.119,2.5,2.5,2.5h64.116c1.381,0,2.5-1.119,2.5-2.5
		V38.653l17.747-17.751c0.49-0.498,0.761-1.156,0.761-1.853C92.124,18.36,91.859,17.707,91.35,17.18z M76.867,29.282L58.743,47.407
		c-0.242,0.242-0.56,0.396-0.9,0.431l-7.286,0.782c-0.055,0.006-0.107,0.009-0.16,0.009c-0.396,0-0.778-0.156-1.062-0.439
		c-0.32-0.321-0.479-0.771-0.43-1.222l0.789-7.277c0.037-0.34,0.188-0.657,0.432-0.898l18.126-18.125
		c0.281-0.281,0.663-0.439,1.062-0.439c0.397,0,0.778,0.158,1.061,0.439l6.495,6.496C77.453,27.747,77.453,28.697,76.867,29.282z"/>
</g>
<g>
</g>
<g>
</g>
<g>
</g>
<g>
</g>
<g>
</g>
<g>
</g>
<g>
</g>
<g>
</g>
<g>
</g>
<g>
</g>
<g>
</g>
<g>
</g>
<g>
</g>
<g>
</g>
<g>
</g>
</svg>
