<?xml version="1.0" encoding="iso-8859-1"?>
<!-- Generator: Adobe Illustrator 16.0.0, SVG Export Plug-In . SVG Version: 6.00 Build 0)  -->
<!DOCTYPE svg PUBLIC "-//W3C//DTD SVG 1.1//EN" "http://www.w3.org/Graphics/SVG/1.1/DTD/svg11.dtd">
<svg version="1.1" id="Capa_1" xmlns="http://www.w3.org/2000/svg" xmlns:xlink="http://www.w3.org/1999/xlink" x="0px" y="0px"
	 width="98.708px" height="98.708px" viewBox="0 0 98.708 98.708" style="enable-background:new 0 0 98.708 98.708;"
	 xml:space="preserve">
<g>
	<g>
		<path d="M98.682,18.435c0.002-0.063,0.016-0.124,0.016-0.188c0-9.684-22.092-17.534-49.343-17.534
			c-27.252,0-49.343,7.85-49.343,17.534c0,0.064,0.013,0.125,0.015,0.188c-0.01,0.008-0.017,0.015-0.025,0.021v14.796
			c8.128,6.833,27.165,11.627,49.353,11.627s41.225-4.794,49.354-11.627V18.457C98.699,18.45,98.691,18.443,98.682,18.435z"/>
		<g>
			<path d="M97.688,46.875c-0.629-0.355-1.4-0.341-2.021,0.035c-9.603,5.846-27.349,9.477-46.313,9.477
				c-18.964,0-36.71-3.631-46.313-9.477c-0.618-0.376-1.39-0.391-2.02-0.035C0.39,47.229,0,47.896,0,48.618v10.229
				c0,0.623,0.291,1.211,0.787,1.59c8.764,6.683,27.828,11,48.567,11S89.157,67.12,97.92,60.439
				c0.496-0.379,0.787-0.967,0.787-1.592V48.619C98.708,47.896,98.318,47.229,97.688,46.875z"/>
			<path d="M97.688,73.434c-0.629-0.354-1.4-0.342-2.021,0.035c-9.603,5.846-27.349,9.477-46.313,9.477
				c-18.964,0-36.71-3.631-46.313-9.477c-0.618-0.377-1.39-0.391-2.02-0.035C0.39,73.787,0,74.454,0,75.176v10.229
				c0,0.625,0.291,1.213,0.787,1.592c8.764,6.682,27.828,10.999,48.567,10.999s39.803-4.317,48.566-10.998
				c0.496-0.379,0.787-0.968,0.787-1.591v-10.23C98.708,74.454,98.318,73.787,97.688,73.434z"/>
		</g>
	</g>
</g>
<g>
</g>
<g>
</g>
<g>
</g>
<g>
</g>
<g>
</g>
<g>
</g>
<g>
</g>
<g>
</g>
<g>
</g>
<g>
</g>
<g>
</g>
<g>
</g>
<g>
</g>
<g>
</g>
<g>
</g>
</svg>
